<svg xmlns="http://www.w3.org/2000/svg" width="1440" height="900"><path d="M784,495L776,363L643,513Z" fill="#fb8b58" stroke="#fb8b58" stroke-width="1.51"/><path d="M776,363L631,354L643,513Z" fill="#fd9b65" stroke="#fd9b65" stroke-width="1.51"/><path d="M776,363L632,239L631,354Z" fill="#feac75" stroke="#feac75" stroke-width="1.51"/><path d="M776,363L805,249L632,239Z" fill="#fda973" stroke="#fda973" stroke-width="1.51"/><path d="M944,376L805,249L776,363Z" fill="#fa9969" stroke="#fa9969" stroke-width="1.51"/><path d="M631,354L484,386L643,513Z" fill="#fda56f" stroke="#fda56f" stroke-width="1.51"/><path d="M532,205L484,386L631,354Z" fill="#fdbd85" stroke="#fdbd85" stroke-width="1.51"/><path d="M643,513L646,668L784,495Z" fill="#f67e54" stroke="#f67e54" stroke-width="1.51"/><path d="M479,543L646,668L643,513Z" fill="#f6895d" stroke="#f6895d" stroke-width="1.51"/><path d="M784,495L944,376L776,363Z" fill="#f9895b" stroke="#f9895b" stroke-width="1.51"/><path d="M938,521L944,376L784,495Z" fill="#f57850" stroke="#f57850" stroke-width="1.51"/><path d="M938,646L938,521L784,495Z" fill="#f06849" stroke="#f06849" stroke-width="1.51"/><path d="M484,386L479,543L643,513Z" fill="#fca06c" stroke="#fca06c" stroke-width="1.51"/><path d="M646,668L772,693L784,495Z" fill="#ef6d46" stroke="#ef6d46" stroke-width="1.51"/><path d="M632,239L532,205L631,354Z" fill="#fdbc85" stroke="#fdbc85" stroke-width="1.51"/><path d="M622,107L532,205L632,239Z" fill="#ffc492" stroke="#ffc492" stroke-width="1.51"/><path d="M805,249L622,107L632,239Z" fill="#ffb884" stroke="#ffb884" stroke-width="1.51"/><path d="M944,376L928,220L805,249Z" fill="#f9996c" stroke="#f9996c" stroke-width="1.51"/><path d="M479,543L490,661L646,668Z" fill="#f2865a" stroke="#f2865a" stroke-width="1.51"/><path d="M646,668L636,795L772,693Z" fill="#e56339" stroke="#e56339" stroke-width="1.51"/><path d="M772,693L938,646L784,495Z" fill="#ed6342" stroke="#ed6342" stroke-width="1.51"/><path d="M938,521L1088,378L944,376Z" fill="#f1744a" stroke="#f1744a" stroke-width="1.51"/><path d="M484,386L379,359L479,543Z" fill="#feaf79" stroke="#feaf79" stroke-width="1.51"/><path d="M479,543L335,641L490,661Z" fill="#f48f62" stroke="#f48f62" stroke-width="1.51"/><path d="M380,231L379,359L484,386Z" fill="#fdc58e" stroke="#fdc58e" stroke-width="1.51"/><path d="M816,85L622,107L805,249Z" fill="#ffb588" stroke="#ffb588" stroke-width="1.51"/><path d="M532,205L380,231L484,386Z" fill="#fdc791" stroke="#fdc791" stroke-width="1.51"/><path d="M928,220L816,85L805,249Z" fill="#fca77c" stroke="#fca77c" stroke-width="1.51"/><path d="M496,794L636,795L646,668Z" fill="#e16c40" stroke="#e16c40" stroke-width="1.51"/><path d="M772,693L955,794L938,646Z" fill="#de4a2f" stroke="#de4a2f" stroke-width="1.51"/><path d="M380,109L380,231L532,205Z" fill="#fed3a1" stroke="#fed3a1" stroke-width="1.51"/><path d="M379,359L338,550L479,543Z" fill="#fda975" stroke="#fda975" stroke-width="1.51"/><path d="M490,661L496,794L646,668Z" fill="#e9784b" stroke="#e9784b" stroke-width="1.51"/><path d="M244,526L338,550L379,359Z" fill="#feae7d" stroke="#feae7d" stroke-width="1.51"/><path d="M944,376L1082,206L928,220Z" fill="#f49063" stroke="#f49063" stroke-width="1.51"/><path d="M928,220L941,75L816,85Z" fill="#fca884" stroke="#fca884" stroke-width="1.51"/><path d="M1091,534L1088,378L938,521Z" fill="#ec633e" stroke="#ec633e" stroke-width="1.51"/><path d="M938,646L1091,534L938,521Z" fill="#e9583d" stroke="#e9583d" stroke-width="1.51"/><path d="M636,795L798,823L772,693Z" fill="#db562f" stroke="#db562f" stroke-width="1.51"/><path d="M938,646L1057,689L1091,534Z" fill="#e0462e" stroke="#e0462e" stroke-width="1.51"/><path d="M386,793L496,794L490,661Z" fill="#e37a4c" stroke="#e37a4c" stroke-width="1.51"/><path d="M636,795L667,940L798,823Z" fill="#c9542f" stroke="#c9542f" stroke-width="1.51"/><path d="M338,550L335,641L479,543Z" fill="#f89a6d" stroke="#f89a6d" stroke-width="1.51"/><path d="M511,-58L477,71L622,107Z" fill="#ffd6b1" stroke="#ffd6b1" stroke-width="1.51"/><path d="M622,107L477,71L532,205Z" fill="#ffcfa2" stroke="#ffcfa2" stroke-width="1.51"/><path d="M1058,103L941,75L928,220Z" fill="#f89e79" stroke="#f89e79" stroke-width="1.51"/><path d="M816,85L779,-40L622,107Z" fill="#ffbd98" stroke="#ffbd98" stroke-width="1.51"/><path d="M955,794L1057,689L938,646Z" fill="#d83c26" stroke="#d83c26" stroke-width="1.51"/><path d="M798,823L955,794L772,693Z" fill="#d7482a" stroke="#d7482a" stroke-width="1.51"/><path d="M1088,378L1082,206L944,376Z" fill="#f08357" stroke="#f08357" stroke-width="1.51"/><path d="M477,71L380,109L532,205Z" fill="#fed5a8" stroke="#fed5a8" stroke-width="1.51"/><path d="M191,394L244,526L379,359Z" fill="#ffbb8a" stroke="#ffbb8a" stroke-width="1.51"/><path d="M338,550L244,526L335,641Z" fill="#faa076" stroke="#faa076" stroke-width="1.51"/><path d="M191,394L379,359L224,245Z" fill="#fecd9c" stroke="#fecd9c" stroke-width="1.51"/><path d="M957,-43L779,-40L816,85Z" fill="#ffb59a" stroke="#ffb59a" stroke-width="1.51"/><path d="M335,641L386,793L490,661Z" fill="#eb8456" stroke="#eb8456" stroke-width="1.51"/><path d="M479,961L667,940L636,795Z" fill="#c05f3a" stroke="#c05f3a" stroke-width="1.51"/><path d="M243,828L386,793L335,641Z" fill="#e58256" stroke="#e58256" stroke-width="1.51"/><path d="M941,75L957,-43L816,85Z" fill="#fead90" stroke="#fead90" stroke-width="1.51"/><path d="M1082,206L1058,103L928,220Z" fill="#f5956b" stroke="#f5956b" stroke-width="1.51"/><path d="M479,961L636,795L496,794Z" fill="#cd6a40" stroke="#cd6a40" stroke-width="1.51"/><path d="M798,823L923,935L955,794Z" fill="#c23c25" stroke="#c23c25" stroke-width="1.51"/><path d="M224,245L379,359L380,231Z" fill="#fdd09c" stroke="#fdd09c" stroke-width="1.51"/><path d="M1091,534L1214,515L1088,378Z" fill="#e45a36" stroke="#e45a36" stroke-width="1.51"/><path d="M1088,378L1216,246L1082,206Z" fill="#ea8052" stroke="#ea8052" stroke-width="1.51"/><path d="M1082,206L1250,73L1058,103Z" fill="#ee8e69" stroke="#ee8e69" stroke-width="1.51"/><path d="M1242,658L1214,515L1091,534Z" fill="#d8432b" stroke="#d8432b" stroke-width="1.51"/><path d="M380,109L224,245L380,231Z" fill="#fed8a7" stroke="#fed8a7" stroke-width="1.51"/><path d="M779,-40L651,-83L622,107Z" fill="#ffc7a5" stroke="#ffc7a5" stroke-width="1.51"/><path d="M477,71L340,-71L380,109Z" fill="#ffe0bc" stroke="#ffe0bc" stroke-width="1.51"/><path d="M1057,689L1242,658L1091,534Z" fill="#d83924" stroke="#d83924" stroke-width="1.51"/><path d="M955,794L1059,815L1057,689Z" fill="#cd2d1a" stroke="#cd2d1a" stroke-width="1.51"/><path d="M923,935L1059,815L955,794Z" fill="#be2f1c" stroke="#be2f1c" stroke-width="1.51"/><path d="M1214,515L1223,372L1088,378Z" fill="#e26239" stroke="#e26239" stroke-width="1.51"/><path d="M651,-83L511,-58L622,107Z" fill="#ffd2b1" stroke="#ffd2b1" stroke-width="1.51"/><path d="M380,109L231,68L224,245Z" fill="#fee0b7" stroke="#fee0b7" stroke-width="1.51"/><path d="M1065,-42L957,-43L941,75Z" fill="#fca58c" stroke="#fca58c" stroke-width="1.51"/><path d="M793,-222L638,-222L651,-83Z" fill="#ffc6a4" stroke="#ffc6a4" stroke-width="1.51"/><path d="M1223,372L1216,246L1088,378Z" fill="#e57649" stroke="#e57649" stroke-width="1.51"/><path d="M1058,103L1065,-42L941,75Z" fill="#f99f81" stroke="#f99f81" stroke-width="1.51"/><path d="M793,980L923,935L798,823Z" fill="#b94027" stroke="#b94027" stroke-width="1.51"/><path d="M667,940L793,980L798,823Z" fill="#bc4a2a" stroke="#bc4a2a" stroke-width="1.51"/><path d="M96,667L194,691L244,526Z" fill="#f79c79" stroke="#f79c79" stroke-width="1.51"/><path d="M244,526L194,691L335,641Z" fill="#f79972" stroke="#f79972" stroke-width="1.51"/><path d="M667,940L652,1097L793,980Z" fill="#bd502e" stroke="#bd502e" stroke-width="1.51"/><path d="M386,793L479,961L496,794Z" fill="#ce7046" stroke="#ce7046" stroke-width="1.51"/><path d="M338,962L479,961L386,793Z" fill="#c17049" stroke="#c17049" stroke-width="1.51"/><path d="M1214,515L1359,515L1223,372Z" fill="#d7522b" stroke="#d7522b" stroke-width="1.51"/><path d="M1387,260L1250,73L1216,246Z" fill="#dc7e53" stroke="#dc7e53" stroke-width="1.51"/><path d="M1248,825L1242,658L1057,689Z" fill="#c41d10" stroke="#c41d10" stroke-width="1.51"/><path d="M1248,825L1057,689L1059,815Z" fill="#c31b0e" stroke="#c31b0e" stroke-width="1.51"/><path d="M1250,73L1065,-42L1058,103Z" fill="#f19477" stroke="#f19477" stroke-width="1.51"/><path d="M638,-222L493,-175L651,-83Z" fill="#ffd2b1" stroke="#ffd2b1" stroke-width="1.51"/><path d="M340,-71L231,68L380,109Z" fill="#ffe5c4" stroke="#ffe5c4" stroke-width="1.51"/><path d="M224,245L85,370L191,394Z" fill="#ffd2a7" stroke="#ffd2a7" stroke-width="1.51"/><path d="M194,691L243,828L335,641Z" fill="#eb8a62" stroke="#eb8a62" stroke-width="1.51"/><path d="M493,-175L340,-71L511,-58Z" fill="#ffdfbe" stroke="#ffdfbe" stroke-width="1.51"/><path d="M511,-58L340,-71L477,71Z" fill="#ffe0bf" stroke="#ffe0bf" stroke-width="1.51"/><path d="M191,394L74,532L244,526Z" fill="#ffb68e" stroke="#ffb68e" stroke-width="1.51"/><path d="M82,221L85,370L224,245Z" fill="#ffdab2" stroke="#ffdab2" stroke-width="1.51"/><path d="M85,370L74,532L191,394Z" fill="#ffc199" stroke="#ffc199" stroke-width="1.51"/><path d="M194,691L98,781L243,828Z" fill="#e68864" stroke="#e68864" stroke-width="1.51"/><path d="M923,935L1100,938L1059,815Z" fill="#ae2516" stroke="#ae2516" stroke-width="1.51"/><path d="M1079,1074L1100,938L923,935Z" fill="#ad2316" stroke="#ad2316" stroke-width="1.51"/><path d="M243,828L338,962L386,793Z" fill="#cd7850" stroke="#cd7850" stroke-width="1.51"/><path d="M528,1104L652,1097L667,940Z" fill="#bf5c37" stroke="#bf5c37" stroke-width="1.51"/><path d="M651,-83L493,-175L511,-58Z" fill="#ffd7b6" stroke="#ffd7b6" stroke-width="1.51"/><path d="M651,-83L779,-40L793,-222Z" fill="#ffc0a0" stroke="#ffc0a0" stroke-width="1.51"/><path d="M74,532L96,667L244,526Z" fill="#fca887" stroke="#fca887" stroke-width="1.51"/><path d="M243,828L194,968L338,962Z" fill="#c47856" stroke="#c47856" stroke-width="1.51"/><path d="M1372,359L1216,246L1223,372Z" fill="#db7042" stroke="#db7042" stroke-width="1.51"/><path d="M1216,246L1250,73L1082,206Z" fill="#e8865c" stroke="#e8865c" stroke-width="1.51"/><path d="M-79,388L-74,533L74,532Z" fill="#ffbd9e" stroke="#ffbd9e" stroke-width="1.51"/><path d="M98,113L82,221L224,245Z" fill="#fee3bd" stroke="#fee3bd" stroke-width="1.51"/><path d="M98,113L224,245L231,68Z" fill="#fee5c2" stroke="#fee5c2" stroke-width="1.51"/><path d="M793,-222L779,-40L908,-217Z" fill="#ffb79b" stroke="#ffb79b" stroke-width="1.51"/><path d="M1242,658L1359,515L1214,515Z" fill="#d03e25" stroke="#d03e25" stroke-width="1.51"/><path d="M1373,649L1359,515L1242,658Z" fill="#c3311d" stroke="#c3311d" stroke-width="1.51"/><path d="M908,-217L779,-40L957,-43Z" fill="#ffb298" stroke="#ffb298" stroke-width="1.51"/><path d="M908,-217L957,-43L1064,-189Z" fill="#fca78e" stroke="#fca78e" stroke-width="1.51"/><path d="M528,1104L667,940L479,961Z" fill="#c0643e" stroke="#c0643e" stroke-width="1.51"/><path d="M793,980L936,1072L923,935Z" fill="#b73b25" stroke="#b73b25" stroke-width="1.51"/><path d="M1100,938L1248,825L1059,815Z" fill="#ae140b" stroke="#ae140b" stroke-width="1.51"/><path d="M1359,515L1372,359L1223,372Z" fill="#d15b33" stroke="#d15b33" stroke-width="1.51"/><path d="M340,-71L242,-60L231,68Z" fill="#ffeacf" stroke="#ffeacf" stroke-width="1.51"/><path d="M226,-178L242,-60L340,-71Z" fill="#ffeacf" stroke="#ffeacf" stroke-width="1.51"/><path d="M784,1119L936,1072L793,980Z" fill="#b94027" stroke="#b94027" stroke-width="1.51"/><path d="M1100,938L1199,952L1248,825Z" fill="#a00d08" stroke="#a00d08" stroke-width="1.51"/><path d="M1064,-189L957,-43L1065,-42Z" fill="#f9a187" stroke="#f9a187" stroke-width="1.51"/><path d="M53,-70L98,113L231,68Z" fill="#ffefd9" stroke="#ffefd9" stroke-width="1.51"/><path d="M652,1097L784,1119L793,980Z" fill="#bc4b2b" stroke="#bc4b2b" stroke-width="1.51"/><path d="M652,1097L528,1104L784,1119Z" fill="#be5733" stroke="#be5733" stroke-width="1.51"/><path d="M350,1069L528,1104L479,961Z" fill="#c16c45" stroke="#c16c45" stroke-width="1.51"/><path d="M-55,639L98,781L96,667Z" fill="#f3967a" stroke="#f3967a" stroke-width="1.51"/><path d="M96,667L98,781L194,691Z" fill="#ef9170" stroke="#ef9170" stroke-width="1.51"/><path d="M1531,381L1498,248L1372,359Z" fill="#c06740" stroke="#c06740" stroke-width="1.51"/><path d="M1370,786L1373,649L1242,658Z" fill="#b7180d" stroke="#b7180d" stroke-width="1.51"/><path d="M1372,359L1387,260L1216,246Z" fill="#d37146" stroke="#d37146" stroke-width="1.51"/><path d="M1498,248L1387,260L1372,359Z" fill="#c46d45" stroke="#c46d45" stroke-width="1.51"/><path d="M638,-222L355,-189L493,-175Z" fill="#ffdcba" stroke="#ffdcba" stroke-width="1.51"/><path d="M493,-175L355,-189L340,-71Z" fill="#ffe3c2" stroke="#ffe3c2" stroke-width="1.51"/><path d="M1248,825L1370,786L1242,658Z" fill="#b40a04" stroke="#b40a04" stroke-width="1.51"/><path d="M1079,1074L1199,952L1100,938Z" fill="#a6140c" stroke="#a6140c" stroke-width="1.51"/><path d="M1211,-178L1064,-189L1065,-42Z" fill="#f4987e" stroke="#f4987e" stroke-width="1.51"/><path d="M1244,-52L1065,-42L1250,73Z" fill="#ed9278" stroke="#ed9278" stroke-width="1.51"/><path d="M1369,-75L1244,-52L1250,73Z" fill="#e28b71" stroke="#e28b71" stroke-width="1.51"/><path d="M243,1081L350,1069L338,962Z" fill="#c37551" stroke="#c37551" stroke-width="1.51"/><path d="M338,962L350,1069L479,961Z" fill="#c27149" stroke="#c27149" stroke-width="1.51"/><path d="M98,781L194,968L243,828Z" fill="#d0805f" stroke="#d0805f" stroke-width="1.51"/><path d="M1198,1125L1079,1074L936,1072Z" fill="#aa1c11" stroke="#aa1c11" stroke-width="1.51"/><path d="M936,1072L1079,1074L923,935Z" fill="#b12d1c" stroke="#b12d1c" stroke-width="1.51"/><path d="M1361,947L1248,825L1199,952Z" fill="#970001" stroke="#970001" stroke-width="1.51"/><path d="M1361,947L1370,786L1248,825Z" fill="#990001" stroke="#990001" stroke-width="1.51"/><path d="M1531,381L1372,359L1359,515Z" fill="#c15631" stroke="#c15631" stroke-width="1.51"/><path d="M1498,248L1394,85L1387,260Z" fill="#c57650" stroke="#c57650" stroke-width="1.51"/><path d="M1387,260L1394,85L1250,73Z" fill="#d47f5b" stroke="#d47f5b" stroke-width="1.51"/><path d="M355,-189L226,-178L340,-71Z" fill="#ffe8cb" stroke="#ffe8cb" stroke-width="1.51"/><path d="M242,-60L53,-70L231,68Z" fill="#ffefda" stroke="#ffefda" stroke-width="1.51"/><path d="M79,-214L226,-178L355,-189Z" fill="#ffedd5" stroke="#ffedd5" stroke-width="1.51"/><path d="M74,532L-55,639L96,667Z" fill="#fba589" stroke="#fba589" stroke-width="1.51"/><path d="M98,781L79,966L194,968Z" fill="#c67f63" stroke="#c67f63" stroke-width="1.51"/><path d="M-79,388L74,532L85,370Z" fill="#ffc5a3" stroke="#ffc5a3" stroke-width="1.51"/><path d="M-79,388L85,370L-74,228Z" fill="#ffdab8" stroke="#ffdab8" stroke-width="1.51"/><path d="M-74,228L85,370L82,221Z" fill="#ffdebc" stroke="#ffdebc" stroke-width="1.51"/><path d="M-74,228L82,221L-62,84Z" fill="#ffe9ce" stroke="#ffe9ce" stroke-width="1.51"/><path d="M-74,533L-55,639L74,532Z" fill="#ffaf96" stroke="#ffaf96" stroke-width="1.51"/><path d="M1369,-75L1211,-178L1244,-52Z" fill="#e48c71" stroke="#e48c71" stroke-width="1.51"/><path d="M1244,-52L1211,-178L1065,-42Z" fill="#ee9479" stroke="#ee9479" stroke-width="1.51"/><path d="M1064,-189L1211,-178L908,-217Z" fill="#f89d83" stroke="#f89d83" stroke-width="1.51"/><path d="M66,1088L243,1081L194,968Z" fill="#c57d5f" stroke="#c57d5f" stroke-width="1.51"/><path d="M194,968L243,1081L338,962Z" fill="#c47856" stroke="#c47856" stroke-width="1.51"/><path d="M350,1069L243,1081L528,1104Z" fill="#c2724a" stroke="#c2724a" stroke-width="1.51"/><path d="M-62,84L82,221L98,113Z" fill="#ffebd1" stroke="#ffebd1" stroke-width="1.51"/><path d="M1531,381L1359,515L1535,508Z" fill="#bc4b2a" stroke="#bc4b2a" stroke-width="1.51"/><path d="M-50,836L79,966L98,781Z" fill="#d2856c" stroke="#d2856c" stroke-width="1.51"/><path d="M226,-178L53,-70L242,-60Z" fill="#fff0da" stroke="#fff0da" stroke-width="1.51"/><path d="M1535,508L1359,515L1529,637Z" fill="#b63a25" stroke="#b63a25" stroke-width="1.51"/><path d="M1529,637L1359,515L1373,649Z" fill="#b5301d" stroke="#b5301d" stroke-width="1.51"/><path d="M1198,1125L1361,947L1199,952Z" fill="#990102" stroke="#990102" stroke-width="1.51"/><path d="M1529,637L1373,649L1531,781Z" fill="#a8170e" stroke="#a8170e" stroke-width="1.51"/><path d="M1394,85L1369,-75L1250,73Z" fill="#d8876c" stroke="#d8876c" stroke-width="1.51"/><path d="M1485,-41L1369,-75L1394,85Z" fill="#cc846f" stroke="#cc846f" stroke-width="1.51"/><path d="M53,-70L-62,84L98,113Z" fill="#fff3e2" stroke="#fff3e2" stroke-width="1.51"/><path d="M1531,781L1373,649L1370,786Z" fill="#a20d08" stroke="#a20d08" stroke-width="1.51"/><path d="M784,1119L1198,1125L936,1072Z" fill="#b12e1c" stroke="#b12e1c" stroke-width="1.51"/><path d="M1079,1074L1198,1125L1199,952Z" fill="#a2100a" stroke="#a2100a" stroke-width="1.51"/><path d="M-210,652L-50,836L-55,639Z" fill="#f2967c" stroke="#f2967c" stroke-width="1.51"/><path d="M-55,639L-50,836L98,781Z" fill="#eb9176" stroke="#eb9176" stroke-width="1.51"/><path d="M1498,248L1497,86L1394,85Z" fill="#c47a5a" stroke="#c47a5a" stroke-width="1.51"/><path d="M1651,242L1497,86L1498,248Z" fill="#c37651" stroke="#c37651" stroke-width="1.51"/><path d="M-217,214L-189,393L-74,228Z" fill="#ffdfbf" stroke="#ffdfbf" stroke-width="1.51"/><path d="M-74,228L-189,393L-79,388Z" fill="#ffd9b7" stroke="#ffd9b7" stroke-width="1.51"/><path d="M-79,388L-189,393L-74,533Z" fill="#ffc5a3" stroke="#ffc5a3" stroke-width="1.51"/><path d="M-74,533L-210,652L-55,639Z" fill="#fca78e" stroke="#fca78e" stroke-width="1.51"/><path d="M1682,515L1630,352L1535,508Z" fill="#bc4c2b" stroke="#bc4c2b" stroke-width="1.51"/><path d="M1522,936L1531,781L1370,786Z" fill="#8e0001" stroke="#8e0001" stroke-width="1.51"/><path d="M1522,936L1370,786L1361,947Z" fill="#840000" stroke="#840000" stroke-width="1.51"/><path d="M53,-70L-84,-31L-62,84Z" fill="#fff7ec" stroke="#fff7ec" stroke-width="1.51"/><path d="M226,-178L79,-214L53,-70Z" fill="#fff2e0" stroke="#fff2e0" stroke-width="1.51"/><path d="M638,-222L79,-214L355,-189Z" fill="#ffe5c5" stroke="#ffe5c5" stroke-width="1.51"/><path d="M1369,-75L1388,-181L1211,-178Z" fill="#dc8a71" stroke="#dc8a71" stroke-width="1.51"/><path d="M1497,86L1485,-41L1394,85Z" fill="#c78068" stroke="#c78068" stroke-width="1.51"/><path d="M1639,-29L1485,-41L1497,86Z" fill="#c8836e" stroke="#c8836e" stroke-width="1.51"/><path d="M-68,963L66,1088L79,966Z" fill="#c8826d" stroke="#c8826d" stroke-width="1.51"/><path d="M79,966L66,1088L194,968Z" fill="#c77f64" stroke="#c77f64" stroke-width="1.51"/><path d="M243,1081L66,1088L528,1104Z" fill="#c47754" stroke="#c47754" stroke-width="1.51"/><path d="M528,1104L-96,1102L784,1119Z" fill="#c17048" stroke="#c17048" stroke-width="1.51"/><path d="M-45,-203L-84,-31L53,-70Z" fill="#fff7ec" stroke="#fff7ec" stroke-width="1.51"/><path d="M-206,103L-217,214L-74,228Z" fill="#ffe9cd" stroke="#ffe9cd" stroke-width="1.51"/><path d="M1485,-41L1388,-181L1369,-75Z" fill="#cc846f" stroke="#cc846f" stroke-width="1.51"/><path d="M1211,-178L1388,-181L908,-217Z" fill="#ef9479" stroke="#ef9479" stroke-width="1.51"/><path d="M1531,381L1630,352L1498,248Z" fill="#c06740" stroke="#c06740" stroke-width="1.51"/><path d="M1535,508L1630,352L1531,381Z" fill="#be5632" stroke="#be5632" stroke-width="1.51"/><path d="M1682,515L1535,508L1529,637Z" fill="#b63a25" stroke="#b63a25" stroke-width="1.51"/><path d="M-217,214L-224,494L-189,393Z" fill="#ffd3b2" stroke="#ffd3b2" stroke-width="1.51"/><path d="M-189,393L-224,494L-74,533Z" fill="#ffbe9f" stroke="#ffbe9f" stroke-width="1.51"/><path d="M-50,836L-68,963L79,966Z" fill="#c8836f" stroke="#c8836f" stroke-width="1.51"/><path d="M-188,953L-68,963L-50,836Z" fill="#c8836f" stroke="#c8836f" stroke-width="1.51"/><path d="M-224,494L-210,652L-74,533Z" fill="#ffb097" stroke="#ffb097" stroke-width="1.51"/><path d="M-206,103L-74,228L-62,84Z" fill="#ffedd5" stroke="#ffedd5" stroke-width="1.51"/><path d="M1198,1125L1380,1112L1361,947Z" fill="#910001" stroke="#910001" stroke-width="1.51"/><path d="M1501,1112L1522,936L1361,947Z" fill="#7f0000" stroke="#7f0000" stroke-width="1.51"/><path d="M1658,665L1682,515L1529,637Z" fill="#b12e1d" stroke="#b12e1d" stroke-width="1.51"/><path d="M1630,352L1651,242L1498,248Z" fill="#c16d45" stroke="#c16d45" stroke-width="1.51"/><path d="M1682,515L1651,242L1630,352Z" fill="#bf5f3a" stroke="#bf5f3a" stroke-width="1.51"/><path d="M-196,-78L-206,103L-84,-31Z" fill="#fff7ec" stroke="#fff7ec" stroke-width="1.51"/><path d="M-84,-31L-206,103L-62,84Z" fill="#fff3e3" stroke="#fff3e3" stroke-width="1.51"/><path d="M1658,665L1529,637L1531,781Z" fill="#a7160e" stroke="#a7160e" stroke-width="1.51"/><path d="M1670,801L1658,665L1531,781Z" fill="#9e0a06" stroke="#9e0a06" stroke-width="1.51"/><path d="M79,-214L-45,-203L53,-70Z" fill="#fff6e9" stroke="#fff6e9" stroke-width="1.51"/><path d="M-224,494L-224,823L-210,652Z" fill="#f89e85" stroke="#f89e85" stroke-width="1.51"/><path d="M-210,652L-224,823L-50,836Z" fill="#e88f74" stroke="#e88f74" stroke-width="1.51"/><path d="M-68,963L-96,1102L66,1088Z" fill="#c8836f" stroke="#c8836f" stroke-width="1.51"/><path d="M1485,-41L1504,-180L1388,-181Z" fill="#c8836f" stroke="#c8836f" stroke-width="1.51"/><path d="M1388,-181L1635,-201L908,-217Z" fill="#de8a71" stroke="#de8a71" stroke-width="1.51"/><path d="M1639,-29L1504,-180L1485,-41Z" fill="#c8836f" stroke="#c8836f" stroke-width="1.51"/><path d="M1651,242L1669,75L1497,86Z" fill="#c57a5b" stroke="#c57a5b" stroke-width="1.51"/><path d="M1682,515L1669,75L1651,242Z" fill="#c16d46" stroke="#c16d46" stroke-width="1.51"/><path d="M-224,823L-188,953L-50,836Z" fill="#d08670" stroke="#d08670" stroke-width="1.51"/><path d="M1676,975L1670,801L1522,936Z" fill="#7f0000" stroke="#7f0000" stroke-width="1.51"/><path d="M1522,936L1670,801L1531,781Z" fill="#8d0001" stroke="#8d0001" stroke-width="1.51"/><path d="M1658,665L1670,801L1682,515Z" fill="#ab1f13" stroke="#ab1f13" stroke-width="1.51"/><path d="M-45,-203L-196,-78L-84,-31Z" fill="#fff7ec" stroke="#fff7ec" stroke-width="1.51"/><path d="M-206,103L-230,-186L-217,214Z" fill="#fff4e5" stroke="#fff4e5" stroke-width="1.51"/><path d="M1669,75L1639,-29L1497,86Z" fill="#c78068" stroke="#c78068" stroke-width="1.51"/><path d="M-188,953L-96,1102L-68,963Z" fill="#c8836f" stroke="#c8836f" stroke-width="1.51"/><path d="M66,1088L-96,1102L528,1104Z" fill="#c57d60" stroke="#c57d60" stroke-width="1.51"/><path d="M1380,1112L1501,1112L1361,947Z" fill="#820000" stroke="#820000" stroke-width="1.51"/><path d="M1198,1125L1501,1112L1380,1112Z" fill="#8a0001" stroke="#8a0001" stroke-width="1.51"/><path d="M1640,1092L1676,975L1522,936Z" fill="#7f0000" stroke="#7f0000" stroke-width="1.51"/><path d="M1670,801L1676,975L1682,515Z" fill="#9c0604" stroke="#9c0604" stroke-width="1.51"/><path d="M-45,-203L-230,-186L-196,-78Z" fill="#fff7ec" stroke="#fff7ec" stroke-width="1.51"/><path d="M-196,-78L-230,-186L-206,103Z" fill="#fff7ec" stroke="#fff7ec" stroke-width="1.51"/><path d="M-217,214L-230,-186L-224,494Z" fill="#ffeace" stroke="#ffeace" stroke-width="1.51"/><path d="M-224,494L-242,1087L-224,823Z" fill="#e28c71" stroke="#e28c71" stroke-width="1.51"/><path d="M1504,-180L1635,-201L1388,-181Z" fill="#c8836f" stroke="#c8836f" stroke-width="1.51"/><path d="M908,-217L1635,-201L793,-222Z" fill="#f4987e" stroke="#f4987e" stroke-width="1.51"/><path d="M1639,-29L1635,-201L1504,-180Z" fill="#c8836f" stroke="#c8836f" stroke-width="1.51"/><path d="M1669,75L1635,-201L1639,-29Z" fill="#c8836f" stroke="#c8836f" stroke-width="1.51"/><path d="M1501,1112L1640,1092L1522,936Z" fill="#7f0000" stroke="#7f0000" stroke-width="1.51"/><path d="M-188,953L-242,1087L-96,1102Z" fill="#c8836f" stroke="#c8836f" stroke-width="1.51"/><path d="M-224,823L-242,1087L-188,953Z" fill="#c8836f" stroke="#c8836f" stroke-width="1.51"/><path d="M-230,-186L-242,1087L-224,494Z" fill="#ffc0a0" stroke="#ffc0a0" stroke-width="1.51"/></svg>